<?xml version="1.0" encoding="utf-8"?>
<!-- Generator: Adobe Illustrator 16.0.0, SVG Export Plug-In . SVG Version: 6.00 Build 0)  -->
<!DOCTYPE svg PUBLIC "-//W3C//DTD SVG 1.1//EN" "http://www.w3.org/Graphics/SVG/1.1/DTD/svg11.dtd">
<svg version="1.1" id="Layer_1" xmlns="http://www.w3.org/2000/svg" xmlns:xlink="http://www.w3.org/1999/xlink" x="0px" y="0px"
	 width="53.666px" height="20.978px" viewBox="0 0 53.666 20.978" enable-background="new 0 0 53.666 20.978" xml:space="preserve">
<rect x="1.017" y="0.968" fill="#DFD6CA" width="51.667" height="19"/>
<g>
	<polygon fill="#B2ACA6" points="5.413,5.364 1.017,9.76 1.017,0.968 9.808,0.968 	"/>
	<g>
		<polyline fill="none" stroke="#8A857F" stroke-width="0.9254" stroke-miterlimit="10" points="1.344,9.433 1.017,9.76 
			1.017,9.297 		"/>
		
			<line fill="none" stroke="#8A857F" stroke-width="0.9254" stroke-miterlimit="10" stroke-dasharray="0.9833,0.4916" x1="1.017" y1="8.805" x2="1.017" y2="1.677"/>
		<polyline fill="none" stroke="#8A857F" stroke-width="0.9254" stroke-miterlimit="10" points="1.017,1.431 1.017,0.968 
			1.479,0.968 		"/>
		
			<line fill="none" stroke="#8A857F" stroke-width="0.9254" stroke-miterlimit="10" stroke-dasharray="0.9833,0.4916" x1="1.971" y1="0.968" x2="9.1" y2="0.968"/>
		<polyline fill="none" stroke="#8A857F" stroke-width="0.9254" stroke-miterlimit="10" points="9.345,0.968 9.808,0.968 
			9.481,1.295 		"/>
		<polyline fill="none" stroke="#8A857F" stroke-width="0.9254" stroke-miterlimit="10" stroke-dasharray="0.9206,0.4603" points="
			9.155,1.621 5.413,5.364 1.506,9.27 		"/>
	</g>
</g>
<g>
	<polygon fill="#B2ACA6" points="5.413,15.573 1.017,11.177 1.017,19.969 9.808,19.969 	"/>
	<g>
		<polyline fill="none" stroke="#8A857F" stroke-width="0.9254" stroke-miterlimit="10" points="1.344,11.504 1.017,11.177 
			1.017,11.64 		"/>
		
			<line fill="none" stroke="#8A857F" stroke-width="0.9254" stroke-miterlimit="10" stroke-dasharray="0.9833,0.4916" x1="1.017" y1="12.131" x2="1.017" y2="19.26"/>
		<polyline fill="none" stroke="#8A857F" stroke-width="0.9254" stroke-miterlimit="10" points="1.017,19.506 1.017,19.969 
			1.479,19.969 		"/>
		
			<line fill="none" stroke="#8A857F" stroke-width="0.9254" stroke-miterlimit="10" stroke-dasharray="0.9833,0.4916" x1="1.971" y1="19.969" x2="9.1" y2="19.969"/>
		<polyline fill="none" stroke="#8A857F" stroke-width="0.9254" stroke-miterlimit="10" points="9.345,19.969 9.808,19.969 
			9.481,19.641 		"/>
		<polyline fill="none" stroke="#8A857F" stroke-width="0.9254" stroke-miterlimit="10" stroke-dasharray="0.9206,0.4603" points="
			9.155,19.316 5.413,15.573 1.506,11.667 		"/>
	</g>
</g>
<g>
	<polygon fill="#B2ACA6" points="48.287,5.364 52.684,9.76 52.684,0.968 43.893,0.968 	"/>
	<g>
		<polyline fill="none" stroke="#8A857F" stroke-width="0.9254" stroke-miterlimit="10" points="52.356,9.433 52.684,9.76 
			52.684,9.297 		"/>
		
			<line fill="none" stroke="#8A857F" stroke-width="0.9254" stroke-miterlimit="10" stroke-dasharray="0.9833,0.4916" x1="52.684" y1="8.805" x2="52.684" y2="1.677"/>
		<polyline fill="none" stroke="#8A857F" stroke-width="0.9254" stroke-miterlimit="10" points="52.684,1.431 52.684,0.968 
			52.221,0.968 		"/>
		
			<line fill="none" stroke="#8A857F" stroke-width="0.9254" stroke-miterlimit="10" stroke-dasharray="0.9833,0.4916" x1="51.729" y1="0.968" x2="44.601" y2="0.968"/>
		<polyline fill="none" stroke="#8A857F" stroke-width="0.9254" stroke-miterlimit="10" points="44.355,0.968 43.893,0.968 
			44.219,1.295 		"/>
		<polyline fill="none" stroke="#8A857F" stroke-width="0.9254" stroke-miterlimit="10" stroke-dasharray="0.9206,0.4603" points="
			44.545,1.621 48.287,5.364 52.193,9.27 		"/>
	</g>
</g>
<g>
	<polygon fill="#B2ACA6" points="48.287,15.573 52.684,11.177 52.684,19.969 43.893,19.969 	"/>
	<g>
		<polyline fill="none" stroke="#8A857F" stroke-width="0.9254" stroke-miterlimit="10" points="52.356,11.504 52.684,11.177 
			52.684,11.64 		"/>
		
			<line fill="none" stroke="#8A857F" stroke-width="0.9254" stroke-miterlimit="10" stroke-dasharray="0.9833,0.4916" x1="52.684" y1="12.131" x2="52.684" y2="19.26"/>
		<polyline fill="none" stroke="#8A857F" stroke-width="0.9254" stroke-miterlimit="10" points="52.684,19.506 52.684,19.969 
			52.221,19.969 		"/>
		
			<line fill="none" stroke="#8A857F" stroke-width="0.9254" stroke-miterlimit="10" stroke-dasharray="0.9833,0.4916" x1="51.729" y1="19.969" x2="44.601" y2="19.969"/>
		<polyline fill="none" stroke="#8A857F" stroke-width="0.9254" stroke-miterlimit="10" points="44.355,19.969 43.893,19.969 
			44.219,19.641 		"/>
		<polyline fill="none" stroke="#8A857F" stroke-width="0.9254" stroke-miterlimit="10" stroke-dasharray="0.9206,0.4603" points="
			44.545,19.316 48.287,15.573 52.193,11.667 		"/>
	</g>
</g>
<rect x="1.017" y="0.968" fill="none" stroke="#292016" stroke-width="2" stroke-miterlimit="10" width="51.667" height="19"/>
</svg>
