<?xml version="1.0" encoding="utf-8"?>
<!-- Generator: Adobe Illustrator 16.0.0, SVG Export Plug-In . SVG Version: 6.00 Build 0)  -->
<!DOCTYPE svg PUBLIC "-//W3C//DTD SVG 1.1//EN" "http://www.w3.org/Graphics/SVG/1.1/DTD/svg11.dtd">
<svg version="1.1" id="Layer_1" xmlns="http://www.w3.org/2000/svg" xmlns:xlink="http://www.w3.org/1999/xlink" x="0px" y="0px"
	 width="53.667px" height="20.958px" viewBox="0 0 53.667 20.958" enable-background="new 0 0 53.667 20.958" xml:space="preserve">
<rect x="1.025" y="0.963" fill="#212123" width="51.666" height="19"/>
<g>
	<polygon fill="#333130" points="5.421,5.359 1.025,9.755 1.025,0.963 9.817,0.963 	"/>
	<g>
		<polyline fill="none" stroke="#1C1B1A" stroke-width="0.9254" stroke-miterlimit="10" points="1.353,9.428 1.025,9.755 
			1.025,9.292 		"/>
		
			<line fill="none" stroke="#1C1B1A" stroke-width="0.9254" stroke-miterlimit="10" stroke-dasharray="0.9833,0.4916" x1="1.025" y1="8.801" x2="1.025" y2="1.672"/>
		<polyline fill="none" stroke="#1C1B1A" stroke-width="0.9254" stroke-miterlimit="10" points="1.025,1.426 1.025,0.963 
			1.488,0.963 		"/>
		
			<line fill="none" stroke="#1C1B1A" stroke-width="0.9254" stroke-miterlimit="10" stroke-dasharray="0.9833,0.4916" x1="1.979" y1="0.963" x2="9.108" y2="0.963"/>
		<polyline fill="none" stroke="#1C1B1A" stroke-width="0.9254" stroke-miterlimit="10" points="9.354,0.963 9.817,0.963 
			9.49,1.291 		"/>
		<polyline fill="none" stroke="#1C1B1A" stroke-width="0.9254" stroke-miterlimit="10" stroke-dasharray="0.9206,0.4603" points="
			9.164,1.616 5.421,5.359 1.515,9.266 		"/>
	</g>
</g>
<g>
	<polygon fill="#333130" points="5.421,15.568 1.025,11.172 1.025,19.964 9.817,19.964 	"/>
	<g>
		<polyline fill="none" stroke="#1C1B1A" stroke-width="0.9254" stroke-miterlimit="10" points="1.353,11.5 1.025,11.172 
			1.025,11.635 		"/>
		
			<line fill="none" stroke="#1C1B1A" stroke-width="0.9254" stroke-miterlimit="10" stroke-dasharray="0.9833,0.4916" x1="1.025" y1="12.127" x2="1.025" y2="19.256"/>
		<polyline fill="none" stroke="#1C1B1A" stroke-width="0.9254" stroke-miterlimit="10" points="1.025,19.501 1.025,19.964 
			1.488,19.964 		"/>
		
			<line fill="none" stroke="#1C1B1A" stroke-width="0.9254" stroke-miterlimit="10" stroke-dasharray="0.9833,0.4916" x1="1.979" y1="19.964" x2="9.108" y2="19.964"/>
		<polyline fill="none" stroke="#1C1B1A" stroke-width="0.9254" stroke-miterlimit="10" points="9.354,19.964 9.817,19.964 
			9.49,19.637 		"/>
		<polyline fill="none" stroke="#1C1B1A" stroke-width="0.9254" stroke-miterlimit="10" stroke-dasharray="0.9206,0.4603" points="
			9.164,19.311 5.421,15.568 1.515,11.662 		"/>
	</g>
</g>
<g>
	<polygon fill="#333130" points="48.297,5.359 52.692,9.755 52.692,0.963 43.9,0.963 	"/>
	<g>
		<polyline fill="none" stroke="#1C1B1A" stroke-width="0.9254" stroke-miterlimit="10" points="52.365,9.428 52.692,9.755 
			52.692,9.292 		"/>
		
			<line fill="none" stroke="#1C1B1A" stroke-width="0.9254" stroke-miterlimit="10" stroke-dasharray="0.9833,0.4916" x1="52.692" y1="8.801" x2="52.692" y2="1.672"/>
		<polyline fill="none" stroke="#1C1B1A" stroke-width="0.9254" stroke-miterlimit="10" points="52.692,1.426 52.692,0.963 
			52.229,0.963 		"/>
		
			<line fill="none" stroke="#1C1B1A" stroke-width="0.9254" stroke-miterlimit="10" stroke-dasharray="0.9833,0.4916" x1="51.738" y1="0.963" x2="44.609" y2="0.963"/>
		<polyline fill="none" stroke="#1C1B1A" stroke-width="0.9254" stroke-miterlimit="10" points="44.363,0.963 43.9,0.963 
			44.229,1.291 		"/>
		<polyline fill="none" stroke="#1C1B1A" stroke-width="0.9254" stroke-miterlimit="10" stroke-dasharray="0.9206,0.4603" points="
			44.554,1.616 48.297,5.359 52.203,9.266 		"/>
	</g>
</g>
<g>
	<polygon fill="#333130" points="48.297,15.568 52.692,11.172 52.692,19.964 43.9,19.964 	"/>
	<g>
		<polyline fill="none" stroke="#1C1B1A" stroke-width="0.9254" stroke-miterlimit="10" points="52.365,11.5 52.692,11.172 
			52.692,11.635 		"/>
		
			<line fill="none" stroke="#1C1B1A" stroke-width="0.9254" stroke-miterlimit="10" stroke-dasharray="0.9833,0.4916" x1="52.692" y1="12.127" x2="52.692" y2="19.256"/>
		<polyline fill="none" stroke="#1C1B1A" stroke-width="0.9254" stroke-miterlimit="10" points="52.692,19.501 52.692,19.964 
			52.229,19.964 		"/>
		
			<line fill="none" stroke="#1C1B1A" stroke-width="0.9254" stroke-miterlimit="10" stroke-dasharray="0.9833,0.4916" x1="51.738" y1="19.964" x2="44.609" y2="19.964"/>
		<polyline fill="none" stroke="#1C1B1A" stroke-width="0.9254" stroke-miterlimit="10" points="44.363,19.964 43.9,19.964 
			44.229,19.637 		"/>
		<polyline fill="none" stroke="#1C1B1A" stroke-width="0.9254" stroke-miterlimit="10" stroke-dasharray="0.9206,0.4603" points="
			44.554,19.311 48.297,15.568 52.203,11.662 		"/>
	</g>
</g>
<rect x="1.025" y="0.963" fill="none" stroke="#292016" stroke-width="2" stroke-miterlimit="10" width="51.666" height="19"/>
</svg>
